<svg id="Layer_1" data-name="Layer 1" xmlns="http://www.w3.org/2000/svg" viewBox="0 0 94 84"><defs><style>.cls-1{fill:#c3d24f;}</style></defs><path class="cls-1" d="M47,38.53A18.33,18.33,0,1,1,65.32,20.21,18.34,18.34,0,0,1,47,38.53ZM47,4.31a15.9,15.9,0,1,0,15.89,15.9A15.91,15.91,0,0,0,47,4.31Z"/><path class="cls-1" d="M52.26,26.84a3.18,3.18,0,0,1,0,.57,1.39,1.39,0,0,1-.1.37A.44.44,0,0,1,52,28a.31.31,0,0,1-.19.06H42.22A.31.31,0,0,1,42,28a.44.44,0,0,1-.15-.21,1.1,1.1,0,0,1-.1-.37,3.18,3.18,0,0,1,0-.57,4.73,4.73,0,0,1,0-.58,1.1,1.1,0,0,1,.1-.37.44.44,0,0,1,.15-.21.36.36,0,0,1,.2-.06h1.26V21.38H42.22a.38.38,0,0,1-.19-.05.42.42,0,0,1-.15-.19,1.17,1.17,0,0,1-.1-.37,3,3,0,0,1,0-.57,4.39,4.39,0,0,1,0-.56,1.17,1.17,0,0,1,.1-.37.42.42,0,0,1,.15-.19.36.36,0,0,1,.2-.06h1.26v-1.1a8.85,8.85,0,0,1,.32-2.51,4.44,4.44,0,0,1,1-1.73,3.55,3.55,0,0,1,1.53-1,7.33,7.33,0,0,1,3.12-.24,5.52,5.52,0,0,1,.89.22A4.11,4.11,0,0,1,51,13a2.14,2.14,0,0,1,.48.34,2,2,0,0,1,.22.26,1,1,0,0,1,.1.25,2.84,2.84,0,0,1,0,.36c0,.14,0,.32,0,.52a4.28,4.28,0,0,1,0,.56,1.33,1.33,0,0,1-.09.37.43.43,0,0,1-.14.19.32.32,0,0,1-.18.06.64.64,0,0,1-.38-.16c-.14-.11-.31-.23-.52-.37A4.38,4.38,0,0,0,49.8,15a2.83,2.83,0,0,0-1-.17,2.41,2.41,0,0,0-1,.2,1.71,1.71,0,0,0-.68.57,2.63,2.63,0,0,0-.38.93,6.09,6.09,0,0,0-.12,1.27V19h3.21a.36.36,0,0,1,.2.06.42.42,0,0,1,.15.19,1.54,1.54,0,0,1,.09.37,3,3,0,0,1,0,.56,3,3,0,0,1,0,.57,1.51,1.51,0,0,1-.1.37.42.42,0,0,1-.15.19.38.38,0,0,1-.19.05H46.58v4.24h5.2a.36.36,0,0,1,.2.06.44.44,0,0,1,.15.21,1.43,1.43,0,0,1,.09.37A3.22,3.22,0,0,1,52.26,26.84Z"/><path class="cls-1" d="M25.93,80A18.33,18.33,0,1,1,44.26,61.67,18.35,18.35,0,0,1,25.93,80Zm0-34.22A15.9,15.9,0,1,0,41.82,61.67,15.91,15.91,0,0,0,25.93,45.78Z"/><path class="cls-1" d="M68.07,80A18.33,18.33,0,1,1,86.39,61.67,18.35,18.35,0,0,1,68.07,80Zm0-34.22A15.9,15.9,0,1,0,84,61.67,15.9,15.9,0,0,0,68.07,45.78Z"/><path class="cls-1" d="M30.78,64.42a4.34,4.34,0,0,1-.34,1.73,3.87,3.87,0,0,1-1,1.33,4.63,4.63,0,0,1-1.5.89,7,7,0,0,1-1.95.42l-.24,2.39a.43.43,0,0,1-.05.16.27.27,0,0,1-.14.11,1.37,1.37,0,0,1-.29.07,3.09,3.09,0,0,1-.47,0,4.34,4.34,0,0,1-.57,0,1.41,1.41,0,0,1-.34-.1.28.28,0,0,1-.16-.16.41.41,0,0,1,0-.22L24,68.77a7.76,7.76,0,0,1-.91-.17c-.28-.07-.54-.15-.77-.23a4.8,4.8,0,0,1-.59-.27,1.38,1.38,0,0,1-.38-.26.72.72,0,0,1-.19-.38,4.4,4.4,0,0,1-.05-.74,5.54,5.54,0,0,1,0-.62,1.08,1.08,0,0,1,.08-.38.35.35,0,0,1,.14-.19.38.38,0,0,1,.19,0,1,1,0,0,1,.43.17c.18.11.42.23.71.37a8.34,8.34,0,0,0,1.05.37,5.77,5.77,0,0,0,1.46.16,3.2,3.2,0,0,0,1.94-.48,1.55,1.55,0,0,0,.63-1.29,1.38,1.38,0,0,0-.27-.88,2.49,2.49,0,0,0-.73-.61,7.06,7.06,0,0,0-1-.47c-.38-.13-.78-.28-1.18-.44a10.3,10.3,0,0,1-1.17-.54,4.68,4.68,0,0,1-1-.77A3.76,3.76,0,0,1,21.59,60a4.14,4.14,0,0,1-.27-1.58,3.88,3.88,0,0,1,.28-1.52,3.51,3.51,0,0,1,.8-1.2,4,4,0,0,1,1.29-.83,6.36,6.36,0,0,1,1.73-.43l.23-2.24A.33.33,0,0,1,25.7,52s.07-.08.14-.12a1.37,1.37,0,0,1,.29-.07l.47,0a4.45,4.45,0,0,1,.57,0,1.51,1.51,0,0,1,.35.1.28.28,0,0,1,.16.16.78.78,0,0,1,0,.22l-.22,2.11.66.12a5.36,5.36,0,0,1,.64.19,4.84,4.84,0,0,1,.55.22,1.46,1.46,0,0,1,.34.21.77.77,0,0,1,.14.19.67.67,0,0,1,.08.24,2.48,2.48,0,0,1,0,.33c0,.13,0,.28,0,.45s0,.42,0,.57a1.65,1.65,0,0,1-.07.34.34.34,0,0,1-.1.16.25.25,0,0,1-.13,0,1,1,0,0,1-.42-.15c-.19-.1-.42-.2-.69-.31a6.91,6.91,0,0,0-.94-.31,4.23,4.23,0,0,0-1.16-.15,4,4,0,0,0-1,.11,1.82,1.82,0,0,0-.67.32,1.22,1.22,0,0,0-.38.47,1.56,1.56,0,0,0-.12.62,1.42,1.42,0,0,0,.27.88,2.42,2.42,0,0,0,.75.61,6.74,6.74,0,0,0,1,.47l1.2.45a9.7,9.7,0,0,1,1.19.54,3.92,3.92,0,0,1,1,.76,3.39,3.39,0,0,1,.74,1.09A4,4,0,0,1,30.78,64.42Z"/><path class="cls-1" d="M74,67.45a3.13,3.13,0,0,1-.1.85,1.37,1.37,0,0,1-.27.48,2.41,2.41,0,0,1-.49.34,4.59,4.59,0,0,1-.79.33,8.08,8.08,0,0,1-1.07.25,9,9,0,0,1-1.33.1,7.49,7.49,0,0,1-2.43-.36,5.19,5.19,0,0,1-1.82-1,5.13,5.13,0,0,1-1.22-1.63,8,8,0,0,1-.67-2.2H62.59a.32.32,0,0,1-.29-.23,2,2,0,0,1-.11-.8,3.25,3.25,0,0,1,0-.47,1.06,1.06,0,0,1,.06-.31.32.32,0,0,1,.11-.17.23.23,0,0,1,.16-.06h1.08v-.38c0-.13,0-.27,0-.4s0-.32,0-.48v-.45H62.54c-.12,0-.21-.08-.27-.23a2.77,2.77,0,0,1-.08-.79,3.28,3.28,0,0,1,0-.49A1.53,1.53,0,0,1,62.3,59a.36.36,0,0,1,.13-.16.24.24,0,0,1,.16,0h1.25a9.27,9.27,0,0,1,.71-2.14A5.82,5.82,0,0,1,65.76,55a5.18,5.18,0,0,1,1.76-1.09,7,7,0,0,1,2.4-.38,8,8,0,0,1,1.22.09,7.08,7.08,0,0,1,1.07.24,5.85,5.85,0,0,1,.78.3,2.57,2.57,0,0,1,.45.26.93.93,0,0,1,.19.22,1.63,1.63,0,0,1,.1.29c0,.11,0,.26.06.43s0,.39,0,.64,0,.4,0,.54a1.33,1.33,0,0,1-.08.33.52.52,0,0,1-.13.18.39.39,0,0,1-.18,0,.84.84,0,0,1-.46-.17c-.17-.11-.39-.23-.64-.37a5.89,5.89,0,0,0-.92-.36A4.25,4.25,0,0,0,70.13,56a3.53,3.53,0,0,0-1.19.19,2.49,2.49,0,0,0-.89.56,3.06,3.06,0,0,0-.6.87,5.27,5.27,0,0,0-.35,1.16h3.33a.28.28,0,0,1,.17,0,.3.3,0,0,1,.12.16,1.07,1.07,0,0,1,.08.31,3.28,3.28,0,0,1,0,.49,1.85,1.85,0,0,1-.11.79.33.33,0,0,1-.29.23H66.86c0,.13,0,.26,0,.39s0,.28,0,.45,0,.29,0,.43,0,.29,0,.44h3.57a.29.29,0,0,1,.17.06.32.32,0,0,1,.12.17,1,1,0,0,1,.08.31,3.09,3.09,0,0,1,0,.47,2,2,0,0,1-.11.8.32.32,0,0,1-.29.23H67.09a3.76,3.76,0,0,0,.33,1.12,2.56,2.56,0,0,0,.61.83,2.6,2.6,0,0,0,.94.52,4.28,4.28,0,0,0,1.32.19,4.18,4.18,0,0,0,1.24-.17,5.82,5.82,0,0,0,.92-.38c.26-.14.48-.27.65-.38a.92.92,0,0,1,.43-.17.35.35,0,0,1,.18,0,.32.32,0,0,1,.13.19,1.15,1.15,0,0,1,.08.39A5.62,5.62,0,0,1,74,67.45Z"/><path class="cls-1" d="M18.78,41.77l-.27,0a1.22,1.22,0,0,1-.92-1.46A30,30,0,0,1,25,26.45a1.22,1.22,0,0,1,1.78,1.66A27.6,27.6,0,0,0,20,40.82,1.21,1.21,0,0,1,18.78,41.77Z"/><path class="cls-1" d="M75.22,41.77a1.22,1.22,0,0,1-1.19-1,27.43,27.43,0,0,0-6.76-12.71A1.21,1.21,0,0,1,69,26.45,29.83,29.83,0,0,1,76.4,40.28a1.22,1.22,0,0,1-.91,1.46Z"/><path class="cls-1" d="M47,82.12a28.48,28.48,0,0,1-4-.27,27.84,27.84,0,0,1-4.43-.92,1.22,1.22,0,1,1,.69-2.33,26.06,26.06,0,0,0,4.06.84A27.67,27.67,0,0,0,54.7,78.6a1.21,1.21,0,1,1,.68,2.33,29.58,29.58,0,0,1-4.44.93A30.79,30.79,0,0,1,47,82.12Z"/></svg>