<svg id="Layer_1" data-name="Layer 1" xmlns="http://www.w3.org/2000/svg" viewBox="0 0 94 84"><defs><style>.cls-1{fill:#c3d24f;}</style></defs><path class="cls-1" d="M4,42.25a1.43,1.43,0,0,1-1.06-.47,1.45,1.45,0,0,1,.09-2L16.79,27.13a1.44,1.44,0,0,1,1.94,2.12L4.94,41.87A1.47,1.47,0,0,1,4,42.25Z"/><path class="cls-1" d="M35.82,34.4a1.45,1.45,0,0,1-.67-.17l-10.48-5.6A1.44,1.44,0,1,1,26,26.1L36.5,31.7a1.43,1.43,0,0,1-.68,2.7Z"/><path class="cls-1" d="M42.65,33.5a1.43,1.43,0,0,1-1-2.41L54.17,17.55a1.43,1.43,0,1,1,2.1,1.95L43.7,33A1.43,1.43,0,0,1,42.65,33.5Z"/><path class="cls-1" d="M71.86,26.91a1.45,1.45,0,0,1-.84-.27L61.08,19.4a1.44,1.44,0,1,1,1.69-2.32l9.94,7.24a1.43,1.43,0,0,1-.85,2.59Z"/><path class="cls-1" d="M78.78,26.6a1.43,1.43,0,0,1-1-2.44L89,12.9a1.44,1.44,0,1,1,2,2L79.79,26.18A1.42,1.42,0,0,1,78.78,26.6Z"/><path class="cls-1" d="M58.48,21.09a5.74,5.74,0,1,1,5.73-5.74A5.74,5.74,0,0,1,58.48,21.09Zm0-8.61a2.87,2.87,0,1,0,2.86,2.87A2.87,2.87,0,0,0,58.48,12.48Z"/><path class="cls-1" d="M75.69,34a5.74,5.74,0,1,1,5.74-5.74A5.74,5.74,0,0,1,75.69,34Zm0-8.61a2.87,2.87,0,1,0,2.87,2.87A2.88,2.88,0,0,0,75.69,25.39Z"/><path class="cls-1" d="M39.83,41.17a5.74,5.74,0,1,1,5.74-5.74A5.74,5.74,0,0,1,39.83,41.17Zm0-8.6a2.87,2.87,0,1,0,2.87,2.86A2.87,2.87,0,0,0,39.83,32.57Z"/><path class="cls-1" d="M21.18,31.13a5.74,5.74,0,1,1,5.74-5.74A5.75,5.75,0,0,1,21.18,31.13Zm0-8.61a2.87,2.87,0,1,0,2.87,2.87A2.88,2.88,0,0,0,21.18,22.52Z"/><path class="cls-1" d="M90,22.52a1.43,1.43,0,0,1-1.43-1.43V15.35H82.86a1.44,1.44,0,0,1,0-2.87H90a1.45,1.45,0,0,1,1.44,1.44v7.17A1.44,1.44,0,0,1,90,22.52Z"/><path class="cls-1" d="M21.18,81.43h0A1.44,1.44,0,0,1,19.75,80V38.43A1.43,1.43,0,0,1,21.18,37h0a1.44,1.44,0,0,1,1.44,1.43V80A1.44,1.44,0,0,1,21.18,81.43Z"/><path class="cls-1" d="M39.83,81.43h0A1.44,1.44,0,0,1,38.39,80V48.48A1.44,1.44,0,0,1,39.83,47h0a1.43,1.43,0,0,1,1.43,1.44V80A1.44,1.44,0,0,1,39.83,81.43Z"/><path class="cls-1" d="M58.48,81.43h0A1.44,1.44,0,0,1,57,80V28.39A1.43,1.43,0,0,1,58.48,27h0a1.43,1.43,0,0,1,1.43,1.43V80A1.44,1.44,0,0,1,58.48,81.43Z"/><path class="cls-1" d="M75.69,81.43h0A1.44,1.44,0,0,1,74.25,80V41.3a1.44,1.44,0,0,1,1.44-1.43h0a1.43,1.43,0,0,1,1.43,1.43V80A1.44,1.44,0,0,1,75.69,81.43Z"/><path class="cls-1" d="M90,81.43H2.53V4A1.44,1.44,0,1,1,5.4,4V78.56H90a1.44,1.44,0,1,1,0,2.87Z"/></svg>