<svg id="Layer_1" data-name="Layer 1" xmlns="http://www.w3.org/2000/svg" viewBox="0 0 94 84"><defs><style>.cls-1{fill:#c3d24f;}</style></defs><path class="cls-1" d="M87.15,62.74H6.85a4,4,0,0,1-4-4V5.2a4,4,0,0,1,4-4h80.3a4,4,0,0,1,4,4V58.73A4,4,0,0,1,87.15,62.74ZM6.85,3.86A1.34,1.34,0,0,0,5.51,5.2V58.73a1.34,1.34,0,0,0,1.34,1.34h80.3a1.34,1.34,0,0,0,1.34-1.34V5.2a1.34,1.34,0,0,0-1.34-1.34Z"/><path class="cls-1" d="M60.38,82.82H33.62a1.34,1.34,0,0,1,0-2.68H60.38a1.34,1.34,0,0,1,0,2.68Z"/><path class="cls-1" d="M36.81,82.71l-1-2.47c.23-.1,5.87-2.7,5.87-13.48h2.67C44.32,79.44,37.12,82.59,36.81,82.71Z"/><path class="cls-1" d="M57.19,82.71c-.31-.12-7.51-3.27-7.51-15.95h2.67c0,10.78,5.64,13.38,5.88,13.49Z"/><path class="cls-1" d="M15.82,32.7a1.35,1.35,0,0,1-.92-.36,1.79,1.79,0,0,1-.14-.13A12.7,12.7,0,0,1,10.87,23,12.84,12.84,0,0,1,23.7,10.18a1.37,1.37,0,0,1,1.38,1.33V23.45a1.33,1.33,0,0,1-.39.94l-7.92,7.92A1.33,1.33,0,0,1,15.82,32.7ZM22.4,12.94A10.18,10.18,0,0,0,13.54,23a10.07,10.07,0,0,0,2.3,6.44l6.56-6.56Z"/><path class="cls-1" d="M23.77,36a12.77,12.77,0,0,1-4.33-.75,1.34,1.34,0,1,1,.9-2.52A10.23,10.23,0,0,0,28.08,13.8a1.34,1.34,0,0,1,1.14-2.42A12.9,12.9,0,0,1,23.77,36Z"/><path class="cls-1" d="M35,46.68H13.54a1.34,1.34,0,0,1,0-2.67H35a1.34,1.34,0,0,1,0,2.67Z"/><path class="cls-1" d="M35,54.71H13.54a1.34,1.34,0,0,1,0-2.67H35a1.34,1.34,0,0,1,0,2.67Z"/><path class="cls-1" d="M61.39,32.63h-.07a1.35,1.35,0,0,1-1-.54L56.09,26.4l-4.15,4a1.24,1.24,0,0,1-.95.37,1.28,1.28,0,0,1-.94-.41l-3.5-3.67L45.24,27.9a1.34,1.34,0,0,1-1.83-2l2.28-2.13a1.34,1.34,0,0,1,1.88.05l3.49,3.66,4.27-4.11a1.35,1.35,0,0,1,2,.17l4.16,5.61L70.68,19a1.36,1.36,0,0,1,1-.44,1.39,1.39,0,0,1,1,.44l1.52,1.7,6.87-7.92a1.34,1.34,0,0,1,2,1.75l-7.86,9.06a1.38,1.38,0,0,1-1,.47,1.36,1.36,0,0,1-1-.45l-1.54-1.71L62.38,32.19A1.36,1.36,0,0,1,61.39,32.63Z"/><path class="cls-1" d="M82.44,18.69a1.34,1.34,0,0,1-1.34-1.34V14.57H78.31a1.34,1.34,0,0,1,0-2.68h4.13a1.34,1.34,0,0,1,1.34,1.34v4.12A1.34,1.34,0,0,1,82.44,18.69Z"/><path class="cls-1" d="M53.69,54.71h-8a1.34,1.34,0,0,1-1.34-1.33V40a1.34,1.34,0,0,1,1.34-1.34h8A1.34,1.34,0,0,1,55,40V53.38A1.34,1.34,0,0,1,53.69,54.71ZM47,52h5.35V41.33H47Z"/><path class="cls-1" d="M68.41,54.71h-8A1.34,1.34,0,0,1,59,53.38v-6.7a1.33,1.33,0,0,1,1.34-1.33h8a1.33,1.33,0,0,1,1.34,1.33v6.7A1.34,1.34,0,0,1,68.41,54.71ZM61.72,52h5.35V48H61.72Z"/><path class="cls-1" d="M83.13,54.71h-8a1.33,1.33,0,0,1-1.33-1.33V29.29A1.33,1.33,0,0,1,75.1,28h8a1.34,1.34,0,0,1,1.34,1.34V53.38A1.34,1.34,0,0,1,83.13,54.71ZM76.44,52h5.35V30.62H76.44Z"/></svg>